#!OML:ASF F:\VICON\USERDATA\INSTALL\rory3\rory3.ASF
:FULLY-SPECIFIED
:DEGREES
448
root -10.2322 16.807 9.7562 1.88582 -19.4973 -2.65228
lowerback 25.8045 3.49635 0.285067
upperback 3.58747 4.51328 -0.269156
thorax -10.2868 2.06184 -1.98386
lowerneck -28.0905 4.73311 -8.02976
upperneck 29.4349 10.3264 0.748861
head 14.3712 3.54313 3.66571
rclavicle 4.01048e-014 -1.41137e-014
rhumerus -14.362 24.8634 -89.366
rradius 61.7583
rwrist -0.705396
rhand -35.2067 -0.216877
rfingers 7.12502
rthumb -8.34426 -30.0321
lclavicle 4.01048e-014 -1.41137e-014
lhumerus -25.7204 -45.0738 96.1341
lradius 53.5891
lwrist 0.0333932
lhand -24.153 17.9488
lfingers 7.12502
lthumb 2.32964 47.9159
rfemur -32.6636 -31.8333 21.3915
rtibia 68.2005
rfoot -13.0257 8.54364
rtoes -19.131
lfemur -32.032 6.79281 -13.4364
ltibia 45.804
lfoot -5.85393 -33.4569
ltoes 12.7666
449
root -10.2604 16.8676 9.74306 1.77716 -18.6502 -2.57314
lowerback 25.5966 3.47595 0.16253
upperback 3.53849 4.45969 -0.266328
thorax -10.2449 2.04487 -1.8825
lowerneck -28.1594 4.82083 -7.99891
upperneck 29.6434 10.45 0.800101
head 14.4672 3.59265 3.71731
rclavicle -8.79622e-015 -1.53064e-014
rhumerus -15.5294 24.7872 -89.7746
rradius 62.4827
rwrist -0.822164
rhand -35.1721 -0.043042
rfingers 7.12502
rthumb -8.31091 -29.8596
lclavicle -8.79622e-015 -1.53064e-014
lhumerus -25.8563 -45.0821 96.2812
lradius 54.2065
lwrist 2.47816
lhand -24.2773 18.5703
lfingers 7.12502
lthumb 2.2095 48.5386
rfemur -31.8243 -30.9831 21.1974
rtibia 67.2418
rfoot -13.1417 8.28056
rtoes -19.135
lfemur -31.2391 6.0925 -13.4398
ltibia 44.1835
lfoot -5.95029 -33.2849
ltoes 8.70182
450
root -10.2889 16.9288 9.72885 1.67864 -17.8057 -2.51454
lowerback 25.4521 3.46496 0.0717453
upperback 3.43276 4.4287 -0.256688
thorax -10.2976 2.03531 -1.80595
lowerneck -27.972 5.01649 -7.74077
upperneck 29.6754 10.6795 0.581886
head 14.4628 3.68785 3.6261
rclavicle -2.47487e-014 -1.86858e-014
rhumerus -16.7984 24.6463 -90.1854
rradius 63.292
rwrist -0.887525
rhand -34.2753 0.674414
rfingers 7.12502
rthumb -7.44526 -29.1746
lclavicle -2.47487e-014 -1.86858e-014
lhumerus -26.2 -45.0207 96.5739
lradius 54.9393
lwrist 4.8343
lhand -24.5715 19.4355
lfingers 7.12502
lthumb 1.92537 49.4065
rfemur -30.9802 -30.1286 21.0198
rtibia 66.2833
rfoot -13.3025 8.10729
rtoes -20.034
lfemur -30.5029 5.30989 -13.3841
ltibia 42.6078
lfoot -5.28574 -33.294
ltoes 7.90329
451
root -10.3164 16.9896 9.71833 1.51905 -16.8972 -2.45941
lowerback 25.2843 3.44544 0.0513944
upperback 3.40447 4.40466 -0.245136
thorax -10.2447 2.02836 -1.76459
lowerneck -27.9299 5.24235 -7.35801
upperneck 29.7706 10.9722 0.218083
head 14.5359 3.79277 3.47935
rclavicle -2.62396e-014 2.08724e-014
rhumerus -18.0014 24.4097 -90.5444
rradius 64.19
rwrist -1.03625
rhand -33.0463 1.29844
rfingers 7.12502
rthumb -6.25886 -28.5891
lclavicle -2.62396e-014 2.08724e-014
lhumerus -26.3856 -44.9586 96.7996
lradius 55.6627
lwrist 6.98311
lhand -24.5271 20.3565
lfingers 7.12502
lthumb 1.9683 50.3271
rfemur -30.0256 -29.308 20.7921
rtibia 65.316
rfoot -13.5132 8.15403
rtoes -21.8281
lfemur -29.7163 4.39752 -13.3105
ltibia 41.0759
lfoot -3.93162 -33.2414
ltoes 9.51734
452
root -10.344 17.0445 9.70847 1.38616 -15.9887 -2.40162
lowerback 25.0103 3.44186 0.034418
upperback 3.42725 4.40216 -0.232938
thorax -10.0774 2.0338 -1.72265
lowerneck -27.9804 5.29683 -7.22179
upperneck 29.8671 11.0626 0.0673164
head 14.6074 3.81549 3.42235
rclavicle 7.14631e-014 -1.8487e-014
rhumerus -19.0569 24.1825 -90.8502
rradius 65.0082
rwrist -1.14667
rhand -32.6593 1.69624
rfingers 7.12502
rthumb -5.88533 -28.202
lclavicle 7.14631e-014 -1.8487e-014
lhumerus -26.3538 -45.0548 96.8971
lradius 56.4067
lwrist 9.23025
lhand -24.2442 20.9939
lfingers 7.12502
lthumb 2.24155 50.9618
rfemur -29.1267 -28.4678 20.587
rtibia 64.3757
rfoot -13.7352 8.13345
rtoes -23.6098
lfemur -28.979 3.55099 -13.2821
ltibia 39.5927
lfoot -3.19002 -33.0139
ltoes 9.35625
453
root -10.3737 17.0944 9.6936 1.24991 -15.1531 -2.31854
lowerback 24.8393 3.4892 -0.0965378
upperback 3.36241 4.43882 -0.19637
thorax -10.0732 2.05886 -1.61233
lowerneck -27.9285 5.27359 -7.29491
upperneck 30.0332 11.0397 0.17088
head 14.6583 3.80526 3.47655
rclavicle 9.69075e-015 -1.76918e-014
rhumerus -20.2521 24.0026 -91.1828
rradius 65.7818
rwrist -1.14571
rhand -32.3844 2.14116
rfingers 7.12502
rthumb -5.61986 -27.7643
lclavicle 9.69075e-015 -1.76918e-014
lhumerus -26.4996 -45.0684 97.1179
lradius 57.1737
lwrist 11.3011
lhand -24.2315 21.198
lfingers 7.12502
lthumb 2.25382 51.1658
rfemur -28.2327 -27.4432 20.3771
rtibia 63.4631
rfoot -14.0138 8.18387
rtoes -22.7888
lfemur -28.3126 2.88417 -13.2928
ltibia 38.176
lfoot -2.85565 -32.7401
ltoes 8.28396
454
root -10.4036 17.1421 9.68349 1.06459 -14.3284 -2.28547
lowerback 24.7024 3.54621 -0.169291
upperback 3.29375 4.50676 -0.130531
thorax -10.0887 2.09651 -1.51508
lowerneck -27.8356 5.26795 -7.35184
upperneck 30.2394 11.0543 0.221861
head 14.7229 3.8026 3.51453
rclavicle 7.12643e-014 -1.07344e-014
rhumerus -21.4561 23.8549 -91.4757
rradius 66.5091
rwrist -1.09575
rhand -31.9562 2.47196
rfingers 7.12502
rthumb -5.20644 -27.4441
lclavicle 7.12643e-014 -1.07344e-014
lhumerus -26.765 -44.844 97.4542
lradius 58.0037
lwrist 13.19
lhand -24.0615 21.8005
lfingers 7.12502
lthumb 2.41793 51.7666
rfemur -27.2206 -26.4184 20.1814
rtibia 62.5399
rfoot -14.4291 8.19731
rtoes -21.5603
lfemur -27.6066 2.13046 -13.2393
ltibia 36.8514
lfoot -2.60619 -32.3278
ltoes 6.93251
455
root -10.4321 17.186 9.67913 0.827644 -13.4799 -2.1609
lowerback 24.492 3.58843 -0.292283
upperback 3.28521 4.53856 -0.0969838
thorax -9.99944 2.12049 -1.40594
lowerneck -27.7349 5.30497 -7.35814
upperneck 30.3958 11.1239 0.213158
head 14.7694 3.82312 3.52837
rclavicle 4.61677e-014 -3.71727e-014
rhumerus -22.5119 23.8187 -91.7259
rradius 67.1637
rwrist -1.092
rhand -31.6987 2.81876
rfingers 7.12502
rthumb -4.95785 -27.1032
lclavicle 4.61677e-014 -3.71727e-014
lhumerus -26.8825 -44.4583 97.6345
lradius 58.8807
lwrist 14.9542
lhand -23.3166 22.6276
lfingers 7.12502
lthumb 3.13735 52.5843
rfemur -26.1728 -25.4465 19.8596
rtibia 61.6274
rfoot -14.7195 8.4364
rtoes -21.5256
lfemur -26.872 1.2846 -13.2994
ltibia 35.6138
lfoot -2.59499 -31.8048
ltoes 5.14158
456
root -10.4613 17.2259 9.67277 0.606107 -12.5766 -2.03948
lowerback 24.2736 3.60535 -0.414177
upperback 3.27353 4.53762 -0.0714149
thorax -9.90911 2.12889 -1.29537
lowerneck -27.6234 5.33405 -7.30116
upperneck 30.5062 11.1758 0.128372
head 14.8051 3.83457 3.49602
rclavicle -8.39865e-015 8.84592e-015
rhumerus -23.5747 23.7624 -92.0155
rradius 67.8263
rwrist -1.03045
rhand -31.4089 3.22822
rfingers 7.12502
rthumb -4.67794 -26.7001
lclavicle -8.39865e-015 8.84592e-015
lhumerus -26.9603 -44.1156 97.7327
lradius 59.7425
lwrist 16.5017
lhand -22.5575 23.0511
lfingers 7.12502
lthumb 3.87039 52.9957
rfemur -25.1601 -24.4454 19.5626
rtibia 60.7221
rfoot -14.6505 9.06816
rtoes -20.4865
lfemur -26.2377 0.487723 -13.3741
ltibia 34.4811
lfoot -2.44005 -31.4391
ltoes 3.06892
457
root -10.4897 17.2592 9.66332 0.43769 -11.6511 -1.96642
lowerback 24.0681 3.6106 -0.460943
upperback 3.21797 4.54228 -0.0426864
thorax -9.86902 2.13641 -1.22848
lowerneck -27.5042 5.32304 -7.2832
upperneck 30.6395 11.1577 0.128791
head 14.8427 3.82439 3.49152
rclavicle -7.28049e-015 -7.25564e-015
rhumerus -24.6179 23.7311 -92.3236
rradius 68.4413
rwrist -0.985193
rhand -31.0397 3.49277
rfingers 7.12502
rthumb -4.3215 -26.4431
lclavicle -7.28049e-015 -7.25564e-015
lhumerus -27.1172 -43.9986 97.8775
lradius 60.5949
lwrist 17.9683
lhand -22.0876 23.543
lfingers 7.12502
lthumb 4.32416 53.4789
rfemur -24.2113 -23.3502 19.3476
rtibia 59.8464
rfoot -14.6797 9.67222
rtoes -19.2146
lfemur -25.7308 -0.307543 -13.4057
ltibia 33.4462
lfoot -2.01798 -31.139
ltoes 1.60026
458
root -10.5167 17.286 9.65097 0.384207 -10.6842 -1.92772
lowerback 23.776 3.59131 -0.414161
upperback 3.13872 4.54006 -0.0186256
thorax -9.8017 2.13801 -1.2131
lowerneck -27.2853 5.33213 -7.34564
upperneck 30.7125 11.156 0.216919
head 14.8172 3.83324 3.53009
rclavicle -2.93953e-014 2.17669e-014
rhumerus -25.6062 23.6267 -92.6184
rradius 69.0351
rwrist -0.893775
rhand -30.485 3.47336
rfingers 7.12502
rthumb -3.78581 -26.4728
lclavicle -2.93953e-014 2.17669e-014
lhumerus -27.2987 -43.9891 98.0407
lradius 61.4772
lwrist 19.2072
lhand -21.6272 24.3036
lfingers 7.12502
lthumb 4.76872 54.2299
rfemur -23.4318 -22.1798 19.2548
rtibia 59.0066
rfoot -15.0163 9.95278
rtoes -18.8346
lfemur -25.4307 -1.14807 -13.3888
ltibia 32.4922
lfoot -1.4411 -30.9438
ltoes 1.54276
